{
	"asset":{
		"generator":"Khronos glTF Blender I/O v4.1.63",
		"version":"2.0"
	},
	"extensionsUsed":[
		"KHR_materials_specular",
		"KHR_materials_ior"
	],
	"scene":0,
	"scenes":[
		{
			"name":"Scene",
			"nodes":[
				0,
				1
			]
		}
	],
	"nodes":[
		{
			"mesh":0,
			"name":"Deskmat - Mat",
			"translation":[
				-0.02358255349099636,
				0,
				0
			]
		},
		{
			"mesh":1,
			"name":"Deskmat - Edge",
			"translation":[
				-0.02358255349099636,
				0,
				0
			]
		}
	],
	"materials":[
		{
			"doubleSided":true,
			"extensions":{
				"KHR_materials_specular":{
					"specularFactor":0
				},
				"KHR_materials_ior":{
					"ior":1.4500000476837158
				}
			},
			"name":"Deskmat - Mat",
			"pbrMetallicRoughness":{
				"baseColorFactor":[
					0.0024774300400167704,
					0.0021635862067341805,
					0.025871509686112404,
					1
				],
				"metallicFactor":0
			}
		},
		{
			"doubleSided":true,
			"extensions":{
				"KHR_materials_specular":{
					"specularFactor":0
				},
				"KHR_materials_ior":{
					"ior":1.4500000476837158
				}
			},
			"name":"Deskmat - Edging",
			"pbrMetallicRoughness":{
				"baseColorFactor":[
					0.008385817520320415,
					0.008385817520320415,
					0.008385817520320415,
					1
				],
				"metallicFactor":0
			}
		}
	],
	"meshes":[
		{
			"name":"900x400 Deskmat Mat",
			"primitives":[
				{
					"attributes":{
						"POSITION":0,
						"NORMAL":1
					},
					"indices":2,
					"material":0
				}
			]
		},
		{
			"name":"900x400 Deskmat Edge",
			"primitives":[
				{
					"attributes":{
						"POSITION":3,
						"NORMAL":4
					},
					"indices":5,
					"material":1
				}
			]
		}
	],
	"accessors":[
		{
			"bufferView":0,
			"componentType":5126,
			"count":176,
			"max":[
				0.47236987948417664,
				0.004000000189989805,
				0.19751958549022675
			],
			"min":[
				-0.4276301860809326,
				0,
				-0.20248043537139893
			],
			"type":"VEC3"
		},
		{
			"bufferView":1,
			"componentType":5126,
			"count":176,
			"type":"VEC3"
		},
		{
			"bufferView":2,
			"componentType":5123,
			"count":324,
			"type":"SCALAR"
		},
		{
			"bufferView":3,
			"componentType":5126,
			"count":2862,
			"max":[
				0.47636985778808594,
				0.004000000189989805,
				0.20151959359645844
			],
			"min":[
				-0.4316301643848419,
				-1.5265566919468147e-17,
				-0.20648042857646942
			],
			"type":"VEC3"
		},
		{
			"bufferView":4,
			"componentType":5126,
			"count":2862,
			"type":"VEC3"
		},
		{
			"bufferView":5,
			"componentType":5123,
			"count":17172,
			"type":"SCALAR"
		}
	],
	"bufferViews":[
		{
			"buffer":0,
			"byteLength":2112,
			"byteOffset":0,
			"target":34962
		},
		{
			"buffer":0,
			"byteLength":2112,
			"byteOffset":2112,
			"target":34962
		},
		{
			"buffer":0,
			"byteLength":648,
			"byteOffset":4224,
			"target":34963
		},
		{
			"buffer":0,
			"byteLength":34344,
			"byteOffset":4872,
			"target":34962
		},
		{
			"buffer":0,
			"byteLength":34344,
			"byteOffset":39216,
			"target":34962
		},
		{
			"buffer":0,
			"byteLength":34344,
			"byteOffset":73560,
			"target":34963
		}
	],
	"buffers":[
		{
			"byteLength":107904,
			"uri":"Deskmat.bin"
		}
	]
}
